<?xml version="1.0" standalone="no"?>
<!DOCTYPE svg PUBLIC "-//W3C//DTD SVG 20010904//EN"
 "http://www.w3.org/TR/2001/REC-SVG-20010904/DTD/svg10.dtd">
<svg version="1.0" xmlns="http://www.w3.org/2000/svg"
 width="875.000000pt" height="965.000000pt" viewBox="0 0 875.000000 965.000000"
 preserveAspectRatio="xMidYMid meet">

<g transform="translate(0.000000,965.000000) scale(0.100000,-0.100000)"
fill="#000000" stroke="none">
<path d="M0 4825 l0 -4825 4375 0 4375 0 0 4825 0 4825 -4375 0 -4375 0 0
-4825z m4047 3866 c-2 -27 -5 -29 -54 -35 -66 -8 -130 -36 -177 -77 -67 -58
-99 -147 -121 -339 -8 -69 -15 -155 -15 -191 l0 -66 -98 -12 c-54 -6 -152 -25
-218 -42 -65 -17 -128 -33 -140 -36 -20 -5 -21 -1 -27 164 -9 254 -41 401
-107 491 -35 48 -130 98 -207 107 -50 7 -53 8 -53 36 l0 29 610 0 609 0 -2
-29z m2353 0 c0 -26 -3 -29 -47 -35 -89 -12 -145 -37 -193 -86 -84 -83 -118
-221 -127 -517 -3 -101 -7 -183 -9 -183 -2 0 -21 6 -41 14 -21 8 -74 24 -118
36 -44 12 -89 25 -100 30 -11 5 -63 14 -116 20 l-96 12 -6 147 c-16 377 -84
492 -311 526 -36 6 -45 11 -49 31 -2 13 -2 26 1 29 3 3 277 5 609 5 l603 0 0
-29z m-2390 -812 c108 -15 261 -55 365 -96 109 -43 122 -53 69 -53 -49 0 -146
-61 -292 -185 l-103 -86 -129 12 c-467 46 -926 -165 -1212 -556 -96 -132 -190
-351 -228 -533 -25 -118 -39 -372 -21 -372 7 0 12 -10 11 -22 -3 -37 0 -44 11
-28 8 11 9 6 7 -22 -2 -21 -1 -38 2 -38 3 0 11 -29 18 -64 33 -175 129 -396
232 -535 191 -258 455 -431 775 -507 108 -25 322 -30 447 -9 333 55 637 247
841 532 112 158 206 379 238 563 14 81 18 366 5 415 -12 46 7 19 21 -28 17
-63 16 -11 -2 100 -36 221 -136 443 -281 625 -34 42 -49 68 -41 71 6 3 -7 2
-30 0 -28 -4 -43 -2 -43 5 0 7 33 35 73 63 130 92 307 170 334 147 8 -6 51
-59 94 -117 134 -178 252 -443 299 -673 12 -56 23 -113 26 -125 3 -17 12 -23
29 -23 l25 0 0 494 0 493 49 -9 c123 -22 287 -82 383 -141 l47 -28 4 -1472 c3
-1319 5 -1479 19 -1538 22 -91 58 -157 110 -206 48 -44 92 -62 172 -72 46 -5
51 -9 54 -33 l3 -27 -594 -1 -595 0 -4 24 c-5 23 -1 26 51 36 166 33 227 91
278 265 16 54 18 139 23 910 3 468 4 852 3 854 -2 2 -9 -2 -18 -9 -8 -7 -22
-10 -30 -6 -9 3 -14 2 -11 -3 9 -14 -31 -219 -60 -306 -14 -43 -35 -91 -46
-105 l-21 -25 6 30 c6 29 6 29 -9 -5 -144 -315 -266 -492 -464 -670 -99 -90
-117 -103 -132 -94 -6 4 -8 3 -5 -4 4 -5 -14 -26 -40 -44 -54 -39 -163 -102
-163 -94 0 2 24 18 53 35 28 17 66 42 82 55 29 24 29 25 8 26 -13 0 -23 -4
-23 -10 0 -5 -6 -10 -12 -10 -7 1 -2 10 11 21 14 11 32 17 45 14 12 -3 15 -2
8 1 -6 3 -10 10 -6 15 7 12 1 11 -30 -5 -29 -15 -79 -10 -73 8 2 6 12 13 22
14 10 3 15 0 11 -7 -9 -14 7 -14 21 0 6 6 9 17 7 24 -3 7 5 20 18 29 34 24 17
19 -48 -14 -32 -16 -62 -30 -66 -30 -18 0 -6 17 20 28 64 29 112 65 72 55 -16
-4 -21 -3 -16 5 15 24 -16 11 -99 -44 -160 -104 -377 -190 -555 -219 -54 -8
-157 -15 -238 -15 -93 0 -141 -4 -137 -10 4 -6 -6 -10 -22 -10 -20 0 -24 -3
-14 -9 11 -7 10 -11 -5 -19 -17 -10 -16 -12 14 -18 18 -4 35 -10 37 -15 3 -4
-3 -6 -14 -4 -11 2 -32 0 -48 -5 l-28 -8 28 -1 c16 -1 26 -5 22 -11 -3 -5 -26
-9 -51 -8 -25 0 -51 -5 -57 -12 -9 -10 -9 -11 2 -5 7 4 16 3 20 -2 3 -5 26
-15 51 -21 l45 -11 -55 5 c-151 15 -373 80 -525 155 -319 156 -606 445 -779
786 -30 60 -32 71 -11 53 8 -7 15 -17 15 -22 0 -5 5 -14 10 -21 6 -7 18 -21
26 -32 14 -18 15 -18 10 -2 -4 12 -2 17 6 14 7 -2 12 -11 12 -20 -1 -9 2 -15
6 -12 4 3 11 -5 15 -18 6 -20 8 -20 12 -3 3 10 0 23 -6 29 -14 14 -14 30 0 21
6 -3 3 5 -6 19 -9 15 -15 32 -13 39 3 7 17 -9 31 -37 14 -27 26 -42 27 -32 0
10 -7 32 -16 48 -28 55 -9 40 21 -17 27 -50 45 -68 45 -44 0 6 -5 10 -11 10
-6 0 -9 6 -6 14 3 8 -1 20 -9 27 -8 6 -12 14 -9 17 3 3 0 11 -6 19 -7 8 -8 13
-1 13 10 0 39 -59 34 -72 -1 -5 2 -8 8 -8 15 0 12 33 -5 56 -8 10 -15 25 -15
33 0 8 -9 24 -19 35 -30 33 -86 142 -131 254 -70 179 -108 375 -112 594 -1 54
-3 73 -5 44 -2 -27 -11 -55 -19 -63 -8 -9 -14 -10 -14 -3 0 6 -4 8 -10 5 -5
-3 -10 1 -10 10 0 9 5 13 11 10 7 -5 8 8 3 41 -3 27 -8 50 -9 52 -4 5 -17
-112 -26 -233 -6 -96 -7 -88 -4 60 4 179 28 331 76 475 12 36 21 75 21 87 0
13 4 20 9 17 5 -3 9 0 9 5 0 6 -4 11 -10 11 -5 0 -10 5 -10 11 0 5 5 7 11 3 7
-4 10 -1 7 7 -12 34 110 256 212 388 272 351 613 571 1034 666 199 44 372 51
576 24z m1588 1 c416 -61 713 -210 1013 -510 151 -151 241 -275 336 -463 92
-184 163 -431 176 -612 3 -38 3 -60 0 -47 -12 59 -21 4 -26 -180 -4 -121 -13
-229 -21 -268 l-15 -65 6 55 c12 115 18 257 12 300 -4 31 -6 36 -7 16 -3 -42
-10 -28 -15 27 -5 47 -17 78 -17 43 0 -9 -4 -14 -10 -11 -5 3 -10 18 -10 32 0
45 -12 17 -19 -43 -8 -72 -27 -82 -36 -20 -4 25 -11 46 -15 46 -5 0 -6 -18 -3
-40 4 -26 2 -40 -6 -40 -6 0 -11 -13 -11 -30 0 -16 -4 -30 -10 -30 -5 0 -8 15
-6 33 3 18 0 40 -5 48 -6 10 -9 0 -9 -31 -1 -41 -2 -43 -12 -20 -6 14 -10 29
-9 33 1 4 -5 17 -12 27 -12 17 -13 4 -9 -90 5 -124 -9 -258 -42 -395 -13 -52
-19 -92 -15 -89 5 3 9 12 9 20 0 8 4 14 9 14 5 0 7 8 4 19 -2 10 2 24 10 32 7
8 12 19 10 25 -2 7 2 14 10 17 11 4 12 -3 6 -36 -5 -23 -8 -49 -8 -57 1 -22
28 41 29 66 0 12 7 27 15 34 13 10 15 9 15 -10 0 -13 -3 -20 -7 -16 -7 7 -32
-75 -33 -108 0 -31 14 -8 27 42 10 37 11 39 8 12 -2 -19 -7 -51 -10 -70 -5
-27 -4 -31 4 -20 10 13 12 13 20 1 8 -12 11 -8 16 15 4 16 10 38 15 49 l9 20
0 -20 c1 -17 3 -17 11 -5 5 8 10 24 10 36 0 11 6 21 14 21 13 0 13 -5 0 -35
-18 -43 -18 -52 1 -52 20 0 20 -3 -18 -100 -123 -310 -322 -569 -597 -775 -69
-52 -201 -135 -214 -135 -3 0 -6 40 -6 88 0 66 -5 97 -19 125 l-19 37 87 57
c116 78 291 254 367 370 76 115 136 233 173 342 16 46 31 77 33 70 5 -15 30
84 48 185 24 139 4 428 -35 523 -35 83 -53 16 -53 -192 0 -135 -4 -191 -22
-275 -41 -201 -117 -388 -222 -545 -65 -98 -212 -253 -293 -310 -86 -60 -85
-60 -85 -31 0 19 12 33 48 58 80 55 226 211 296 315 79 120 123 213 168 356
20 67 37 106 45 103 17 -7 33 99 39 264 7 180 -10 305 -65 470 -100 300 -239
487 -515 693 -68 51 -253 141 -366 177 -230 75 -528 79 -735 10 -36 -12 -73
-19 -81 -16 -8 3 -13 2 -10 -3 7 -11 -71 -41 -92 -35 -12 4 -13 3 -5 -3 9 -6
1 -14 -25 -28 -141 -73 -292 -190 -402 -310 -113 -125 -228 -324 -280 -487
l-22 -68 -79 0 c-75 0 -79 -1 -93 -27 l-15 -28 5 35 c10 64 56 214 91 295 77
184 185 337 358 510 196 197 374 307 630 390 192 63 241 70 475 70 230 -1 300
-11 489 -71 62 -19 119 -34 127 -32 24 5 -84 69 -181 108 -203 81 -348 110
-557 110 -264 0 -471 -50 -720 -176 -290 -145 -555 -403 -693 -674 -62 -122
-87 -192 -75 -204 8 -8 9 -6 4 9 -5 16 -4 18 6 8 9 -8 9 -16 1 -30 -6 -10 -11
-12 -11 -5 0 6 -5 12 -11 12 -6 0 -8 -7 -5 -16 3 -8 2 -13 -3 -10 -14 9 -21
-33 -10 -61 6 -17 5 -41 -5 -76 -16 -54 -30 -134 -41 -224 l-6 -53 573 -2 573
-3 13 -75 c13 -73 11 -285 -3 -355 l-6 -30 -107 0 c-59 0 -344 -1 -634 -2
l-528 -3 0 -45 0 -45 89 0 89 0 27 -81 c40 -121 157 -346 211 -407 45 -52 49
-64 19 -68 -15 -2 -136 122 -127 131 3 3 -2 5 -12 5 -18 0 -15 -11 12 -43 14
-16 14 -17 0 -12 -9 4 -24 18 -33 32 -9 13 -19 22 -22 20 -2 -3 4 -18 14 -33
17 -27 17 -28 -1 -21 -14 6 -17 4 -12 -8 3 -9 2 -13 -4 -10 -6 3 -10 13 -10
20 0 8 -6 12 -15 9 -12 -5 -11 -14 6 -57 15 -41 16 -48 3 -32 -28 36 -122 238
-153 329 -33 99 -49 121 -78 112 -18 -6 -19 -12 -12 -59 10 -61 12 -569 2
-676 -5 -65 -8 -72 -20 -56 -8 12 -13 14 -13 6 0 -34 -216 23 -363 95 l-77 37
0 1083 0 1084 68 34 c82 41 197 80 296 101 131 26 116 74 116 -377 0 -216 4
-388 8 -382 5 5 25 61 46 125 86 266 240 505 467 724 153 148 298 249 474 330
307 143 613 191 923 145z m260 -510 c107 -41 139 -66 52 -40 -120 34 -163 52
-148 61 7 5 14 9 15 9 1 0 37 -14 81 -30z m-1994 -656 c3 -8 2 -12 -4 -9 -6 3
-10 10 -10 16 0 14 7 11 14 -7z m2904 -574 c0 -69 -2 -118 -4 -110 -7 32 -10
271 -3 254 4 -11 7 -75 7 -144z m-2615 -453 c54 -173 155 -346 290 -492 31
-35 57 -65 57 -68 0 -3 -22 -4 -50 -4 -27 1 -45 4 -40 5 6 2 -13 32 -43 65
-30 34 -62 74 -71 89 -10 16 -23 25 -30 21 -6 -3 -8 -3 -4 2 9 10 -10 47 -21
40 -5 -2 -8 1 -8 8 2 17 -85 187 -96 187 -4 0 -5 -4 -2 -10 9 -14 -9 -12 -24
3 -7 6 -3 -6 9 -28 l22 -40 -32 30 c-24 23 -30 25 -24 10 7 -18 6 -19 -10 -5
-17 13 -17 12 -2 -24 9 -21 16 -46 15 -55 -1 -28 -49 89 -84 204 -18 60 -39
111 -46 114 -15 4 -29 21 -29 34 0 4 44 7 98 7 l97 0 28 -93z m2787 62 c0 -5
-4 -7 -10 -4 -9 6 -14 -8 -11 -27 0 -5 -3 -8 -9 -8 -13 0 -13 6 0 31 11 20 30
26 30 8z m116 -49 c-10 -54 -38 -142 -42 -137 -5 5 39 167 45 167 2 0 1 -14
-3 -30z m-4826 -319 c-1 -13 -29 45 -29 59 0 8 6 0 14 -19 8 -18 15 -36 15
-40z m100 -6 c0 -5 -5 -3 -10 5 -5 8 -10 20 -10 25 0 6 5 3 10 -5 5 -8 10 -19
10 -25z m1800 -25 c0 -5 -2 -10 -4 -10 -3 0 -8 5 -11 10 -3 6 -1 10 4 10 6 0
11 -4 11 -10z m-35 -370 c10 -11 16 -20 13 -20 -3 0 -13 9 -23 20 -10 11 -16
20 -13 20 3 0 13 -9 23 -20z m1090 -185 c33 -9 111 -18 173 -22 106 -6 112 -7
112 -28 0 -20 -5 -21 -92 -24 -57 -1 -126 5 -178 15 -47 10 -95 17 -107 17
-29 -1 -29 5 -1 34 25 27 17 26 93 8z m-113 -159 c103 -27 242 -46 333 -46
l60 0 3 -147 2 -147 -27 26 c-24 22 -41 27 -113 32 -47 4 -125 14 -175 22
-134 23 -309 72 -262 73 10 1 27 -4 38 -9 15 -8 19 -7 19 5 0 8 9 15 20 15 11
0 20 5 20 10 0 6 8 10 17 10 9 0 14 3 10 6 -3 4 -24 -1 -47 -10 -46 -18 -84
-21 -75 -5 4 6 12 9 19 6 6 -2 34 7 61 19 33 16 42 23 25 21 -14 -1 -30 -6
-37 -10 -7 -4 -27 -1 -45 6 l-33 13 37 25 c21 13 38 27 38 31 0 4 -31 -15 -69
-43 -62 -45 -143 -78 -190 -79 -8 0 26 27 75 60 49 32 112 77 139 99 28 22 53
40 57 40 4 1 49 -10 100 -23z m-522 -91 c0 -6 -56 -35 -67 -35 -4 1 8 9 27 20
39 22 40 22 40 15z m355 -53 c-6 -7 -34 11 -29 19 3 5 11 3 19 -4 7 -6 12 -13
10 -15z m-1636 -207 c71 -25 238 -57 333 -64 l91 -6 24 -90 c38 -144 93 -211
207 -249 26 -9 62 -16 80 -16 40 0 44 -4 38 -35 l-4 -25 -600 0 -599 0 3 28
c3 25 7 28 61 34 137 17 226 102 271 260 9 31 18 83 19 117 2 69 6 71 76 46z
m-81 -1270 c38 -94 174 -444 283 -730 55 -143 104 -268 109 -277 6 -10 10 -22
10 -27 0 -5 14 -39 30 -75 36 -77 88 -132 142 -148 21 -6 38 -15 38 -20 0 -13
-67 -9 -104 6 -61 25 -86 70 -203 366 -67 170 -82 200 -78 155 3 -19 0 -24 -9
-16 -9 7 -12 3 -11 -17 0 -29 -19 -36 -45 -18 -12 9 -12 7 1 -9 25 -31 31 -45
20 -45 -6 0 -11 7 -11 15 0 8 -4 15 -10 15 -5 0 -2 -21 6 -47 17 -51 29 -108
18 -83 -4 8 -20 43 -35 78 l-29 62 -244 0 -244 0 -35 -82 c-19 -46 -47 -117
-62 -158 -29 -79 -52 -117 -39 -65 4 16 29 82 55 147 26 65 50 132 54 150 4
18 30 93 57 166 26 73 45 138 42 144 -4 7 -2 8 4 4 8 -5 12 1 13 16 1 13 2 28
4 33 1 6 3 16 3 23 1 7 7 10 14 6 8 -5 9 0 6 14 -4 14 -2 20 5 15 6 -4 8 0 4
10 -3 9 1 18 10 21 9 4 13 14 10 26 -3 11 -1 20 3 20 10 0 41 90 35 101 -3 4
15 59 39 121 25 62 50 126 55 141 9 23 16 28 38 25 23 -2 31 -13 51 -63z
m4064 16 c54 -17 100 -36 103 -40 2 -5 -2 -14 -10 -21 -10 -8 -14 -29 -13 -64
l1 -51 7 50 c6 40 7 31 8 -50 0 -64 -3 -93 -8 -80 -6 14 -9 15 -10 5 -1 -8
-15 20 -32 64 -55 140 -127 186 -295 186 -137 0 -236 -50 -268 -135 -17 -44
-17 -47 5 -112 47 -141 84 -176 312 -287 184 -89 264 -143 317 -212 30 -40 71
-141 52 -129 -11 6 -21 -29 -21 -77 0 -53 -32 -148 -68 -200 -64 -93 -171
-153 -300 -168 -98 -11 -166 2 -307 58 -55 22 -107 42 -116 45 -13 4 -17 29
-22 139 -3 73 -8 141 -12 151 -5 13 -2 17 13 17 15 0 22 -11 32 -47 15 -62 64
-164 96 -203 68 -80 182 -126 293 -118 86 6 144 34 208 98 66 65 80 109 65
194 -21 113 -81 172 -272 266 -172 84 -198 98 -250 136 -93 67 -137 136 -146
225 -9 88 -14 105 -25 88 -16 -22 0 49 21 96 39 89 140 169 250 200 39 11 89
14 175 11 102 -3 135 -8 217 -35z m-5686 4 c-11 -8 -30 -15 -41 -15 -12 0 -35
-4 -51 -10 -49 -16 -258 -19 -306 -4 -24 7 -60 15 -80 19 -21 3 -38 10 -38 15
0 6 104 10 268 10 237 -1 265 -2 248 -15z m864 6 c0 -5 -19 -12 -41 -16 -23
-4 -56 -13 -73 -20 -56 -22 -207 -19 -317 6 -54 13 -99 27 -99 31 0 4 119 8
265 8 153 0 265 -4 265 -9z m2227 -20 c99 -36 162 -86 200 -160 23 -43 33 -76
32 -104 0 -23 -3 -36 -6 -28 -3 8 -14 -18 -24 -56 -10 -39 -27 -89 -38 -111
-25 -50 -97 -112 -125 -109 -11 1 -21 -3 -21 -10 0 -22 -15 -26 -15 -4 0 22
-1 22 -35 -8 -82 -72 -137 -86 -301 -76 l-124 7 0 237 0 237 -30 2 c-17 1 -30
-3 -30 -9 0 -6 6 -9 13 -6 16 6 41 -20 27 -28 -6 -3 -15 -3 -22 1 -7 4 -8 3
-4 -4 9 -16 -7 -15 -22 0 -9 9 -12 8 -12 -5 0 -11 -8 -17 -22 -18 -14 -1 -5
-6 20 -12 23 -5 42 -14 42 -18 0 -5 -11 -4 -25 1 -46 18 -55 5 -55 -79 -1
-202 -13 -756 -16 -760 -2 -2 -4 226 -4 508 0 570 0 569 -63 596 -19 8 -54 15
-77 17 -25 2 -45 9 -48 16 -3 11 60 13 359 10 346 -4 367 -6 426 -27z m991 17
c-3 -7 -24 -16 -49 -20 -130 -22 -129 -18 -129 -524 0 -314 3 -395 13 -406 8
-7 22 -39 32 -71 48 -154 160 -237 320 -237 154 0 276 85 317 223 6 20 15 37
19 37 4 0 5 10 2 23 -3 15 -2 18 4 9 7 -9 14 9 23 57 15 81 8 722 -9 780 -21
68 -55 94 -153 115 -16 4 -28 11 -28 16 0 6 78 10 205 10 166 0 205 -3 205
-14 0 -8 -17 -15 -48 -19 -68 -8 -98 -25 -119 -66 -16 -32 -19 -79 -24 -436
-4 -220 -11 -422 -17 -450 -34 -160 -99 -246 -232 -309 -60 -29 -73 -31 -174
-31 -73 0 -111 4 -113 11 -2 7 -14 10 -26 7 -14 -3 -18 -2 -10 4 9 6 1 15 -25
28 -20 11 -40 24 -44 30 -5 6 -8 5 -8 -3 0 -10 -5 -10 -22 -1 -18 10 -20 9
-15 -5 19 -50 -100 35 -149 107 -81 117 -89 175 -93 681 -1 186 -7 340 -12
355 -16 41 -49 70 -88 76 -67 11 -81 15 -81 25 0 6 99 10 266 10 206 0 265 -3
262 -12z m2497 3 c-3 -5 -30 -15 -60 -21 -67 -14 -101 -40 -115 -88 -6 -23
-10 -225 -10 -537 0 -458 1 -503 17 -525 52 -75 81 -99 131 -113 23 -6 42 -15
42 -19 0 -13 -65 -9 -111 8 -55 19 -255 18 -313 -3 -44 -15 -102 -17 -110 -4
-4 5 13 12 36 16 30 5 54 19 81 46 77 75 72 36 70 594 -1 380 -5 510 -15 540
-16 49 -60 80 -127 89 -28 4 -51 11 -51 16 0 6 103 10 271 10 164 0 268 -4
264 -9z m-5892 -101 c-9 -26 -12 -149 -13 -474 0 -242 -2 -437 -5 -435 -2 3
-5 164 -5 358 -1 194 -4 359 -7 367 -3 8 -14 14 -25 14 -10 0 -16 5 -13 10 4
7 13 7 26 0 13 -7 19 -7 19 0 0 5 -6 10 -12 10 -10 0 -9 3 1 9 17 11 5 31 -19
31 -10 0 -22 4 -25 10 -3 5 -16 8 -28 6 -12 -3 -28 -5 -34 -5 -8 -1 -13 -16
-13 -43 0 -69 -7 -39 -13 57 -4 56 -3 82 3 70 5 -11 9 -31 10 -45 1 -14 4 -19
7 -12 2 6 12 12 21 12 15 0 15 -2 2 -10 -11 -7 -6 -8 18 -5 17 2 32 0 32 -5 0
-4 11 -10 25 -12 19 -4 25 -1 25 13 0 11 -5 19 -11 19 -5 0 -7 -5 -3 -11 4 -7
1 -10 -6 -7 -22 7 -23 25 -2 30 23 6 39 68 21 79 -7 4 -1 6 12 6 24 -2 24 -3
12 -37z m-47 9 c10 -11 12 -19 6 -19 -7 0 -12 5 -12 11 0 6 -8 8 -19 4 -11 -3
-21 0 -24 8 -8 21 29 18 49 -4z m-66 -8 c0 -5 18 -12 40 -16 48 -8 55 -27 8
-20 -18 3 -27 3 -20 -1 16 -7 6 -24 -15 -24 -10 0 -14 6 -10 19 3 14 0 18 -17
15 -11 -2 -16 -2 -9 2 7 3 9 12 6 20 -3 8 0 14 6 14 6 0 11 -4 11 -9z m-740
-495 c7 -7 10 -5 10 5 0 10 2 11 8 2 6 -10 89 -13 340 -13 321 -1 332 -2 332
-20 0 -19 -11 -20 -352 -22 l-353 -3 -6 -30 -7 -30 -1 32 c0 17 5 33 12 36 10
4 10 7 0 18 -10 10 -13 67 -11 223 l1 211 8 -199 c5 -110 13 -204 19 -210z
m786 359 c-11 -8 -22 -12 -25 -9 -6 6 19 24 34 24 6 -1 1 -7 -9 -15z m-89
-117 c-2 -13 -4 -3 -4 22 0 25 2 35 4 23 2 -13 2 -33 0 -45z m2054 14 c-13 -2
-27 0 -32 5 -6 6 3 7 23 4 28 -4 29 -6 9 -9z m-14 -28 c-3 -3 -12 -4 -19 -1
-8 3 -5 6 6 6 11 1 17 -2 13 -5z m90 -784 c7 -14 12 -20 13 -15 0 6 9 -8 19
-31 23 -51 63 -82 113 -90 60 -10 46 -27 -17 -22 -133 11 -156 74 -153 412 l2
211 6 -220 c3 -134 10 -230 17 -245z m-2850 418 c-3 -8 -6 -5 -6 6 -1 11 2 17
5 13 3 -3 4 -12 1 -19z m3281 -7 c15 -15 69 -102 121 -192 157 -272 202 -327
284 -350 20 -5 37 -14 37 -19 0 -15 -53 -12 -101 6 -24 9 -55 16 -69 16 -16 0
-19 2 -7 5 15 4 12 10 -17 46 -42 53 -98 144 -172 283 -32 59 -80 136 -106
171 -48 62 -48 63 -22 63 16 0 36 -11 52 -29z m-164 -17 c3 -8 2 -12 -4 -9 -6
3 -10 10 -10 16 0 14 7 11 14 -7z m61 -104 c19 -38 33 -70 31 -70 -5 0 -76
125 -76 134 0 18 13 -1 45 -64z m63 -125 c-3 -3 -9 2 -12 12 -6 14 -5 15 5 6
7 -7 10 -15 7 -18z m-1220 -40 c-3 -3 -9 2 -12 12 -6 14 -5 15 5 6 7 -7 10
-15 7 -18z m1246 -1 c3 -8 2 -12 -4 -9 -6 3 -10 10 -10 16 0 14 7 11 14 -7z
m-2407 -71 c-2 -16 -4 -5 -4 22 0 28 2 40 4 28 2 -13 2 -35 0 -50z m2431 22
c-3 -3 -9 2 -12 12 -6 14 -5 15 5 6 7 -7 10 -15 7 -18z m22 -35 c6 -11 8 -20
6 -20 -3 0 -10 9 -16 20 -6 11 -8 20 -6 20 3 0 10 -9 16 -20z m-3295 -45 c6
-32 9 -36 15 -20 6 17 9 15 24 -20 24 -56 41 -72 97 -86 63 -16 64 -33 1 -27
-98 9 -140 54 -148 155 -5 63 0 62 11 -2z m2049 5 l6 -35 -14 35 c-17 42 -20
58 -7 45 5 -6 12 -26 15 -45z m-1179 -20 c7 0 18 -14 25 -30 17 -40 63 -78
105 -86 19 -3 35 -12 35 -19 0 -9 -13 -10 -52 -4 -84 13 -125 55 -133 137 -3
20 -2 29 1 20 3 -10 11 -18 19 -18z m1776 -63 c-24 -50 -70 -77 -131 -77 -53
0 -51 13 6 28 25 7 59 25 75 41 16 17 30 24 33 17 2 -6 10 4 17 22 8 18 15 28
17 22 2 -5 -6 -30 -17 -53z m-1361 39 c0 -3 -4 -8 -10 -11 -5 -3 -10 -1 -10 4
0 6 5 11 10 11 6 0 10 -2 10 -4z m-58 -38 c-7 -7 -12 -8 -12 -2 0 14 12 26 19
19 2 -3 -1 -11 -7 -17z m26 -10 c-8 -12 -26 -30 -39 -40 -29 -22 -119 -36
-119 -19 0 6 8 11 19 11 10 0 35 11 55 25 20 13 42 22 49 19 8 -3 20 2 27 11
19 23 25 18 8 -7z m88 -1 c3 7 15 2 31 -13 14 -13 43 -27 65 -30 21 -4 38 -10
38 -15 0 -14 -68 -10 -107 6 -39 17 -53 31 -53 55 0 13 1 13 11 0 7 -10 12
-11 15 -3z m2077 -36 c-2 -3 -16 8 -31 24 l-27 28 31 -24 c17 -13 30 -26 27
-28z m-3616 22 c7 -19 -41 -43 -96 -50 -61 -7 -71 12 -11 22 22 4 50 15 62 26
24 19 39 20 45 2z m853 -4 c0 -28 -139 -65 -154 -40 -5 7 2 11 16 11 13 0 44
10 68 23 43 22 70 24 70 6z m1378 -8 c-6 -29 -148 -59 -148 -31 0 6 12 10 28
10 15 0 43 8 61 18 42 23 63 24 59 3z m-831 -571 c38 -8 66 -22 91 -45 33 -30
36 -38 40 -96 3 -55 0 -69 -20 -98 -40 -60 -79 -75 -200 -79 l-107 -4 -3 -76
c-3 -74 -4 -77 -28 -77 l-25 0 -5 235 c-3 129 -4 237 -3 240 3 11 206 11 260
0z m451 -207 l2 -213 135 0 c135 0 151 -4 141 -38 -5 -15 -23 -17 -171 -18
l-165 0 0 236 c0 130 3 240 7 244 4 4 16 6 28 4 19 -3 20 -10 23 -215z m847
-28 c105 -219 113 -240 94 -243 -35 -6 -48 5 -76 65 l-28 58 -141 5 c-90 3
-141 1 -141 -5 0 -5 -10 -33 -22 -61 -20 -46 -26 -52 -57 -56 -19 -2 -34 -2
-34 2 0 3 50 112 112 243 l113 238 33 -3 c33 -3 34 -6 147 -243z m540 60 l150
-180 5 180 5 180 30 0 c22 0 30 -5 29 -17 0 -10 -1 -118 -2 -241 l-2 -223 -25
1 c-17 1 -37 15 -58 41 -17 21 -85 104 -152 184 l-120 145 -3 -187 c-1 -104
-6 -188 -10 -188 -4 0 -17 3 -29 6 l-23 6 0 240 0 239 27 -3 c22 -2 59 -40
178 -183z m697 37 c68 -81 137 -166 155 -187 l32 -40 1 188 0 188 28 -3 27 -3
3 -241 2 -241 -30 5 c-24 3 -53 32 -157 159 -71 86 -138 167 -150 182 l-22 26
-1 -186 0 -186 -30 1 -30 1 0 243 0 242 25 0 c19 0 50 -31 147 -148z m893 138
c3 -6 3 -19 0 -30 -6 -19 -15 -20 -146 -20 l-139 0 0 -75 0 -75 130 0 130 0 0
-27 0 -28 -127 0 -128 0 -3 -82 -3 -83 138 -1 c76 -1 144 -1 151 0 7 1 12 -10
12 -26 l0 -28 -180 3 -180 3 0 239 0 240 169 0 c104 0 172 -4 176 -10z m592
-19 c101 -51 111 -207 18 -263 -19 -11 -35 -25 -35 -31 0 -7 25 -45 55 -86 30
-41 53 -76 52 -78 -2 -1 -19 0 -39 3 -34 6 -73 43 -80 76 -2 7 -10 19 -18 26
-13 12 -13 13 0 6 8 -4 3 4 -12 19 -24 22 -37 26 -110 29 l-83 3 0 -80 0 -80
-30 0 -30 0 -3 244 -2 244 137 -5 c115 -4 145 -9 180 -27z m636 9 c28 -14 33
-26 18 -49 -7 -11 -16 -11 -57 3 -96 33 -195 10 -210 -49 -10 -40 18 -71 78
-88 29 -8 78 -22 109 -31 91 -26 129 -75 115 -150 -8 -43 -52 -81 -109 -97
-59 -16 -163 -6 -220 21 -40 19 -47 26 -41 44 10 31 10 31 60 6 62 -30 159
-38 203 -16 38 20 54 56 41 90 -12 32 -28 40 -130 66 -110 28 -138 44 -157 88
-29 69 9 150 82 172 41 13 183 6 218 -10z"/>
<path d="M3640 7829 c-402 -46 -756 -219 -1024 -499 -271 -283 -417 -630 -432
-1022 -4 -116 -3 -138 9 -138 11 0 17 -19 22 -67 10 -105 53 -288 92 -393 54
-145 120 -269 149 -276 15 -4 31 -22 45 -52 13 -26 26 -49 29 -52 4 -3 12 -14
18 -25 11 -18 12 -17 10 13 -1 17 -6 32 -10 32 -4 0 -8 7 -8 16 0 8 -5 12 -10
9 -6 -4 -9 -3 -8 2 3 12 -34 93 -43 93 -8 0 -59 151 -59 173 1 7 10 -10 21
-38 12 -27 25 -58 30 -67 5 -10 9 -25 9 -33 0 -9 9 -25 20 -37 10 -11 26 -36
35 -54 9 -19 19 -34 24 -34 17 0 19 13 5 27 -8 9 -12 18 -9 22 6 5 29 -25 30
-39 1 -14 24 -43 25 -32 0 7 5 10 12 6 7 -4 8 -3 4 5 -4 6 -12 8 -18 5 -7 -5
-9 -1 -5 9 3 9 -2 32 -13 50 -108 183 -180 559 -152 797 6 47 9 86 8 87 -1 2
-12 -6 -24 -17 -14 -14 -22 -16 -22 -8 0 9 -3 9 -10 -2 -7 -11 -10 -3 -11 30
l-2 45 -8 -55 c-5 -30 -12 -93 -17 -140 -8 -78 -9 -80 -11 -29 -3 135 37 383
81 507 11 31 22 79 24 106 11 143 259 479 478 651 204 158 462 276 707 321
155 29 488 22 637 -13 13 -3 22 0 22 6 0 6 -7 11 -16 11 -8 0 -13 4 -10 9 3 4
-5 6 -18 4 -13 -3 -26 0 -30 5 -4 6 3 8 16 5 19 -4 20 -2 7 6 -30 19 -203 59
-307 70 -116 12 -183 12 -292 0z m-47 -36 c-7 -2 -19 -2 -25 0 -7 3 -2 5 12 5
14 0 19 -2 13 -5z m-60 -10 c-7 -2 -21 -2 -30 0 -10 3 -4 5 12 5 17 0 24 -2
18 -5z m-1106 -1515 c-3 -8 -6 -5 -6 6 -1 11 2 17 5 13 3 -3 4 -12 1 -19z
m115 -830 c-9 -9 -12 -7 -12 12 0 19 3 21 12 12 9 -9 9 -15 0 -24z"/>
<path d="M4858 7013 c7 -3 16 -2 19 1 4 3 -2 6 -13 5 -11 0 -14 -3 -6 -6z"/>
<path d="M2456 6765 c-9 -26 -7 -32 5 -12 6 10 9 21 6 23 -2 3 -7 -2 -11 -11z"/>
<path d="M5154 6303 c4 -7 4 -13 -1 -13 -4 0 -8 -78 -9 -173 0 -197 -13 -272
-76 -462 -39 -117 -84 -215 -99 -215 -4 0 -5 10 -2 23 3 12 -11 -4 -31 -36
-226 -364 -583 -624 -948 -691 -104 -20 -309 -37 -408 -36 -121 2 -257 26
-390 69 -130 43 -140 46 -140 33 0 -15 214 -121 306 -151 145 -49 218 -61 389
-67 253 -9 413 25 640 136 366 180 646 525 748 921 28 106 46 255 49 392 1 75
2 84 8 47 l7 -45 1 52 c2 62 -23 203 -39 217 -9 8 -10 8 -5 -1z"/>
<path d="M5070 6129 c0 -11 5 -17 10 -14 6 3 10 13 10 21 0 8 -4 14 -10 14 -5
0 -10 -9 -10 -21z"/>
<path d="M3588 4533 c7 -3 16 -2 19 1 4 3 -2 6 -13 5 -11 0 -14 -3 -6 -6z"/>
<path d="M5295 7670 c-34 -5 -76 -13 -95 -18 -33 -10 -33 -10 -7 -11 15 -1 27
-6 27 -12 0 -7 11 -9 30 -5 17 3 30 2 30 -2 0 -5 21 -9 48 -10 38 -2 44 0 28
9 -10 6 -41 13 -68 15 -28 2 -53 6 -56 9 -6 5 46 10 90 7 14 -1 41 5 60 13
l33 14 -30 -1 c-16 0 -57 -4 -90 -8z"/>
<path d="M5125 7630 c-3 -6 1 -7 9 -4 18 7 21 14 7 14 -6 0 -13 -4 -16 -10z"/>
<path d="M4997 7598 c-32 -11 -56 -22 -53 -25 3 -3 26 2 52 11 25 8 51 13 57
9 5 -3 7 -1 3 5 -3 5 0 13 6 15 35 14 -14 3 -65 -15z"/>
<path d="M5129 7599 c-6 -3 20 -9 58 -12 37 -3 72 -1 78 4 5 5 -6 10 -30 11
-22 0 -53 2 -68 2 -15 1 -32 -1 -38 -5z"/>
<path d="M4988 7563 c-14 -2 -32 -12 -40 -20 -11 -15 -11 -16 6 -10 39 15 107
29 112 24 13 -13 -72 -38 -113 -34 -24 2 -40 1 -37 -4 3 -5 -10 -16 -28 -25
-22 -10 -25 -13 -8 -9 76 19 124 25 206 26 50 1 101 -2 113 -6 12 -4 21 -2 21
4 0 6 -13 12 -30 12 -16 1 -33 3 -37 4 -5 1 -23 6 -41 10 -18 4 -30 10 -27 13
5 6 71 7 90 2 6 -2 21 2 35 7 19 8 0 11 -85 10 -60 0 -122 -2 -137 -4z"/>
<path d="M5230 7545 c-10 -12 -9 -15 4 -15 10 0 15 4 12 9 -4 5 0 12 6 14 8 4
9 6 2 6 -6 1 -17 -6 -24 -14z"/>
<path d="M4994 7492 c-7 -4 23 -8 65 -8 63 -1 69 0 36 7 -51 10 -87 11 -101 1z"/>
<path d="M4948 7473 c7 -3 16 -2 19 1 4 3 -2 6 -13 5 -11 0 -14 -3 -6 -6z"/>
<path d="M6903 6190 c3 -16 21 -14 25 2 3 10 2 10 -6 -1 -7 -9 -11 -10 -15 -2
-4 7 -5 8 -4 1z"/>
<path d="M6982 6120 c0 -14 2 -19 5 -12 2 6 2 18 0 25 -3 6 -5 1 -5 -13z"/>
<path d="M6838 5548 c-3 -13 -9 -31 -13 -40 -4 -10 -3 -18 3 -18 5 0 13 16 17
36 7 39 1 59 -7 22z"/>
<path d="M6870 5419 c0 -5 5 -7 10 -4 6 3 10 8 10 11 0 2 -4 4 -10 4 -5 0 -10
-5 -10 -11z"/>
<path d="M4978 4543 c7 -3 16 -2 19 1 4 3 -2 6 -13 5 -11 0 -14 -3 -6 -6z"/>
<path d="M4937 4529 c7 -7 15 -10 18 -7 3 3 -2 9 -12 12 -14 6 -15 5 -6 -5z"/>
<path d="M4970 4430 c8 -5 22 -10 30 -10 13 0 13 1 0 10 -8 5 -22 10 -30 10
-13 0 -13 -1 0 -10z"/>
<path d="M5020 4420 c0 -5 5 -10 10 -10 6 0 10 5 10 10 0 6 -4 10 -10 10 -5 0
-10 -4 -10 -10z"/>
<path d="M3048 2776 c-21 -20 -74 -149 -171 -416 -19 -52 -38 -103 -42 -112
-7 -17 7 -18 203 -18 120 0 222 -4 238 -10 15 -6 28 -9 29 -8 10 11 -209 551
-230 568 -9 8 -17 7 -27 -4z"/>
<path d="M4293 3011 c-34 -3 -64 -9 -68 -13 -4 -3 -8 -138 -8 -299 l-2 -293
35 -9 c19 -5 78 -7 130 -3 124 7 188 38 241 113 20 29 39 50 42 46 4 -3 14 11
22 31 22 52 22 209 1 261 -10 23 -13 42 -7 48 10 10 3 47 -9 47 -5 0 -6 -10
-3 -22 5 -20 1 -18 -33 13 -53 50 -91 67 -171 79 -72 10 -74 10 -170 1z"/>
<path d="M4067 2982 c14 -9 131 -7 140 2 4 3 -29 6 -73 6 -43 0 -74 -4 -67 -8z"/>
<path d="M4123 2940 c-28 -11 -31 -24 -4 -15 11 3 22 1 25 -4 4 -6 13 -8 21
-5 12 5 12 8 0 20 -7 8 -15 14 -17 13 -2 0 -13 -4 -25 -9z"/>
<path d="M4700 2890 c-8 -5 -10 -10 -5 -10 6 0 17 5 25 10 8 5 11 10 5 10 -5
0 -17 -5 -25 -10z"/>
<path d="M4180 2860 c-13 -8 -12 -10 3 -10 9 0 17 5 17 10 0 12 -1 12 -20 0z"/>
<path d="M4090 2790 c-9 -6 -10 -10 -3 -10 6 0 15 5 18 10 8 12 4 12 -15 0z"/>
<path d="M4695 2551 c-3 -5 -2 -12 3 -15 5 -3 9 1 9 9 0 17 -3 19 -12 6z"/>
<path d="M4760 2525 c0 -8 5 -15 10 -15 6 0 10 7 10 15 0 8 -4 15 -10 15 -5 0
-10 -7 -10 -15z"/>
<path d="M4730 2495 c0 -8 4 -15 8 -15 5 0 9 7 9 15 0 8 -4 15 -9 15 -4 0 -8
-7 -8 -15z"/>
<path d="M7943 1795 c0 -8 4 -12 9 -9 5 3 6 10 3 15 -9 13 -12 11 -12 -6z"/>
<path d="M2503 1153 l-103 -4 0 -111 0 -110 93 4 c50 3 105 11 120 18 32 16
57 57 57 95 0 31 -26 85 -41 85 -6 0 -7 4 -4 10 4 6 -1 7 -11 3 -12 -4 -15 -3
-10 5 4 7 6 11 4 10 -2 -1 -49 -4 -105 -5z"/>
<path d="M3733 1121 c-1 -9 -22 -60 -48 -115 -25 -54 -44 -100 -42 -102 2 -3
51 -3 109 -2 l105 3 -51 112 c-49 109 -70 139 -73 104z"/>
<path d="M6370 1041 l0 -111 85 0 c102 0 147 18 171 68 13 28 14 42 5 72 -19
64 -39 75 -157 78 l-104 4 0 -111z"/>
</g>
</svg>
