<svg xmlns="http://www.w3.org/2000/svg" 
 viewBox="0 0 875.000000 965.000000"
 preserveAspectRatio="xMidYMid meet">
<g transform="translate(0.000000,965.000000) scale(0.100000,-0.100000)"
fill="#FFFFFF" stroke="none">
<path d="M3640 7829 c-402 -46 -756 -219 -1024 -499 -271 -283 -417 -630 -432
-1022 -4 -116 -3 -138 9 -138 11 0 17 -19 22 -67 10 -105 53 -288 92 -393 54
-145 120 -269 149 -276 15 -4 31 -22 45 -52 13 -26 26 -49 29 -52 4 -3 12 -14
18 -25 11 -18 12 -17 10 13 -1 17 -6 32 -10 32 -4 0 -8 7 -8 16 0 8 -5 12 -10
9 -6 -4 -9 -3 -8 2 3 12 -34 93 -43 93 -8 0 -59 151 -59 173 1 7 10 -10 21
-38 12 -27 25 -58 30 -67 5 -10 9 -25 9 -33 0 -9 9 -25 20 -37 10 -11 26 -36
35 -54 9 -19 19 -34 24 -34 17 0 19 13 5 27 -8 9 -12 18 -9 22 6 5 29 -25 30
-39 1 -14 24 -43 25 -32 0 7 5 10 12 6 7 -4 8 -3 4 5 -4 6 -12 8 -18 5 -7 -5
-9 -1 -5 9 3 9 -2 32 -13 50 -108 183 -180 559 -152 797 6 47 9 86 8 87 -1 2
-12 -6 -24 -17 -14 -14 -22 -16 -22 -8 0 9 -3 9 -10 -2 -7 -11 -10 -3 -11 30
l-2 45 -8 -55 c-5 -30 -12 -93 -17 -140 -8 -78 -9 -80 -11 -29 -3 135 37 383
81 507 11 31 22 79 24 106 11 143 259 479 478 651 204 158 462 276 707 321
155 29 488 22 637 -13 13 -3 22 0 22 6 0 6 -7 11 -16 11 -8 0 -13 4 -10 9 3 4
-5 6 -18 4 -13 -3 -26 0 -30 5 -4 6 3 8 16 5 19 -4 20 -2 7 6 -30 19 -203 59
-307 70 -116 12 -183 12 -292 0z m-47 -36 c-7 -2 -19 -2 -25 0 -7 3 -2 5 12 5
14 0 19 -2 13 -5z m-60 -10 c-7 -2 -21 -2 -30 0 -10 3 -4 5 12 5 17 0 24 -2
18 -5z m-1106 -1515 c-3 -8 -6 -5 -6 6 -1 11 2 17 5 13 3 -3 4 -12 1 -19z
m115 -830 c-9 -9 -12 -7 -12 12 0 19 3 21 12 12 9 -9 9 -15 0 -24z"/>
<path d="M4858 7013 c7 -3 16 -2 19 1 4 3 -2 6 -13 5 -11 0 -14 -3 -6 -6z"/>
<path d="M2456 6765 c-9 -26 -7 -32 5 -12 6 10 9 21 6 23 -2 3 -7 -2 -11 -11z"/>
<path d="M5154 6303 c4 -7 4 -13 -1 -13 -4 0 -8 -78 -9 -173 0 -197 -13 -272
-76 -462 -39 -117 -84 -215 -99 -215 -4 0 -5 10 -2 23 3 12 -11 -4 -31 -36
-226 -364 -583 -624 -948 -691 -104 -20 -309 -37 -408 -36 -121 2 -257 26
-390 69 -130 43 -140 46 -140 33 0 -15 214 -121 306 -151 145 -49 218 -61 389
-67 253 -9 413 25 640 136 366 180 646 525 748 921 28 106 46 255 49 392 1 75
2 84 8 47 l7 -45 1 52 c2 62 -23 203 -39 217 -9 8 -10 8 -5 -1z"/>
<path d="M5070 6129 c0 -11 5 -17 10 -14 6 3 10 13 10 21 0 8 -4 14 -10 14 -5
0 -10 -9 -10 -21z"/>
<path d="M3588 4533 c7 -3 16 -2 19 1 4 3 -2 6 -13 5 -11 0 -14 -3 -6 -6z"/>
<path d="M5295 7670 c-34 -5 -76 -13 -95 -18 -33 -10 -33 -10 -7 -11 15 -1 27
-6 27 -12 0 -7 11 -9 30 -5 17 3 30 2 30 -2 0 -5 21 -9 48 -10 38 -2 44 0 28
9 -10 6 -41 13 -68 15 -28 2 -53 6 -56 9 -6 5 46 10 90 7 14 -1 41 5 60 13
l33 14 -30 -1 c-16 0 -57 -4 -90 -8z"/>
<path d="M5125 7630 c-3 -6 1 -7 9 -4 18 7 21 14 7 14 -6 0 -13 -4 -16 -10z"/>
<path d="M4997 7598 c-32 -11 -56 -22 -53 -25 3 -3 26 2 52 11 25 8 51 13 57
9 5 -3 7 -1 3 5 -3 5 0 13 6 15 35 14 -14 3 -65 -15z"/>
<path d="M5129 7599 c-6 -3 20 -9 58 -12 37 -3 72 -1 78 4 5 5 -6 10 -30 11
-22 0 -53 2 -68 2 -15 1 -32 -1 -38 -5z"/>
<path d="M4988 7563 c-14 -2 -32 -12 -40 -20 -11 -15 -11 -16 6 -10 39 15 107
29 112 24 13 -13 -72 -38 -113 -34 -24 2 -40 1 -37 -4 3 -5 -10 -16 -28 -25
-22 -10 -25 -13 -8 -9 76 19 124 25 206 26 50 1 101 -2 113 -6 12 -4 21 -2 21
4 0 6 -13 12 -30 12 -16 1 -33 3 -37 4 -5 1 -23 6 -41 10 -18 4 -30 10 -27 13
5 6 71 7 90 2 6 -2 21 2 35 7 19 8 0 11 -85 10 -60 0 -122 -2 -137 -4z"/>
<path d="M5230 7545 c-10 -12 -9 -15 4 -15 10 0 15 4 12 9 -4 5 0 12 6 14 8 4
9 6 2 6 -6 1 -17 -6 -24 -14z"/>
<path d="M4994 7492 c-7 -4 23 -8 65 -8 63 -1 69 0 36 7 -51 10 -87 11 -101 1z"/>
<path d="M4948 7473 c7 -3 16 -2 19 1 4 3 -2 6 -13 5 -11 0 -14 -3 -6 -6z"/>
<path d="M6903 6190 c3 -16 21 -14 25 2 3 10 2 10 -6 -1 -7 -9 -11 -10 -15 -2
-4 7 -5 8 -4 1z"/>
<path d="M6982 6120 c0 -14 2 -19 5 -12 2 6 2 18 0 25 -3 6 -5 1 -5 -13z"/>
<path d="M6838 5548 c-3 -13 -9 -31 -13 -40 -4 -10 -3 -18 3 -18 5 0 13 16 17
36 7 39 1 59 -7 22z"/>
<path d="M6870 5419 c0 -5 5 -7 10 -4 6 3 10 8 10 11 0 2 -4 4 -10 4 -5 0 -10
-5 -10 -11z"/>
<path d="M4978 4543 c7 -3 16 -2 19 1 4 3 -2 6 -13 5 -11 0 -14 -3 -6 -6z"/>
<path d="M4937 4529 c7 -7 15 -10 18 -7 3 3 -2 9 -12 12 -14 6 -15 5 -6 -5z"/>
<path d="M4970 4430 c8 -5 22 -10 30 -10 13 0 13 1 0 10 -8 5 -22 10 -30 10
-13 0 -13 -1 0 -10z"/>
<path d="M5020 4420 c0 -5 5 -10 10 -10 6 0 10 5 10 10 0 6 -4 10 -10 10 -5 0
-10 -4 -10 -10z"/>
<path d="M3048 2776 c-21 -20 -74 -149 -171 -416 -19 -52 -38 -103 -42 -112
-7 -17 7 -18 203 -18 120 0 222 -4 238 -10 15 -6 28 -9 29 -8 10 11 -209 551
-230 568 -9 8 -17 7 -27 -4z"/>
<path d="M4293 3011 c-34 -3 -64 -9 -68 -13 -4 -3 -8 -138 -8 -299 l-2 -293
35 -9 c19 -5 78 -7 130 -3 124 7 188 38 241 113 20 29 39 50 42 46 4 -3 14 11
22 31 22 52 22 209 1 261 -10 23 -13 42 -7 48 10 10 3 47 -9 47 -5 0 -6 -10
-3 -22 5 -20 1 -18 -33 13 -53 50 -91 67 -171 79 -72 10 -74 10 -170 1z"/>
<path d="M4067 2982 c14 -9 131 -7 140 2 4 3 -29 6 -73 6 -43 0 -74 -4 -67 -8z"/>
<path d="M4123 2940 c-28 -11 -31 -24 -4 -15 11 3 22 1 25 -4 4 -6 13 -8 21
-5 12 5 12 8 0 20 -7 8 -15 14 -17 13 -2 0 -13 -4 -25 -9z"/>
<path d="M4700 2890 c-8 -5 -10 -10 -5 -10 6 0 17 5 25 10 8 5 11 10 5 10 -5
0 -17 -5 -25 -10z"/>
<path d="M4180 2860 c-13 -8 -12 -10 3 -10 9 0 17 5 17 10 0 12 -1 12 -20 0z"/>
<path d="M4090 2790 c-9 -6 -10 -10 -3 -10 6 0 15 5 18 10 8 12 4 12 -15 0z"/>
<path d="M4695 2551 c-3 -5 -2 -12 3 -15 5 -3 9 1 9 9 0 17 -3 19 -12 6z"/>
<path d="M4760 2525 c0 -8 5 -15 10 -15 6 0 10 7 10 15 0 8 -4 15 -10 15 -5 0
-10 -7 -10 -15z"/>
<path d="M4730 2495 c0 -8 4 -15 8 -15 5 0 9 7 9 15 0 8 -4 15 -9 15 -4 0 -8
-7 -8 -15z"/>
<path d="M7943 1795 c0 -8 4 -12 9 -9 5 3 6 10 3 15 -9 13 -12 11 -12 -6z"/>
<path d="M2503 1153 l-103 -4 0 -111 0 -110 93 4 c50 3 105 11 120 18 32 16
57 57 57 95 0 31 -26 85 -41 85 -6 0 -7 4 -4 10 4 6 -1 7 -11 3 -12 -4 -15 -3
-10 5 4 7 6 11 4 10 -2 -1 -49 -4 -105 -5z"/>
<path d="M3733 1121 c-1 -9 -22 -60 -48 -115 -25 -54 -44 -100 -42 -102 2 -3
51 -3 109 -2 l105 3 -51 112 c-49 109 -70 139 -73 104z"/>
<path d="M6370 1041 l0 -111 85 0 c102 0 147 18 171 68 13 28 14 42 5 72 -19
64 -39 75 -157 78 l-104 4 0 -111z"/>
</g>
</svg>