<?xml version="1.0" standalone="no"?>
<!DOCTYPE svg PUBLIC "-//W3C//DTD SVG 20010904//EN"
 "http://www.w3.org/TR/2001/REC-SVG-20010904/DTD/svg10.dtd">
<svg version="1.0" xmlns="http://www.w3.org/2000/svg"
 width="1024.000000pt" height="1043.000000pt" viewBox="0 0 1024.000000 1043.000000"
 preserveAspectRatio="xMidYMid meet">

<g transform="translate(0.000000,1043.000000) scale(0.100000,-0.100000)"
fill="#000000" stroke="none">
<path d="M3462 8878 c3 -32 5 -33 54 -39 65 -8 141 -42 181 -81 82 -79 133
-309 133 -604 l0 -90 69 22 c94 31 240 61 334 69 l77 7 0 62 c0 93 19 272 37
346 39 163 122 246 268 270 32 5 60 12 63 14 2 3 2 17 -2 31 l-6 25 -606 0
-605 0 3 -32z"/>
<path d="M5810 8881 c0 -31 18 -41 75 -41 39 0 132 -44 168 -78 72 -68 113
-217 123 -452 l7 -145 110 -18 c89 -15 207 -46 348 -93 14 -5 17 16 23 175 12
317 43 441 130 526 51 51 120 80 201 87 26 3 30 7 33 36 l3 32 -610 0 -611 0
0 -29z"/>
<path d="M4285 8078 c-351 -21 -738 -186 -1021 -436 -134 -118 -233 -238 -362
-437 -37 -57 -119 -243 -153 -345 -285 -871 107 -1816 916 -2205 585 -282
1247 -213 1774 183 154 116 343 328 453 509 96 157 193 419 224 606 17 99 20
107 41 107 l23 0 0 -791 c0 -814 -2 -873 -41 -999 -39 -126 -104 -185 -237
-218 -67 -16 -72 -19 -72 -44 l0 -28 595 0 595 0 0 29 c0 27 -3 29 -47 36
-121 18 -199 69 -243 159 -67 137 -64 45 -67 1671 l-4 1471 -87 46 c-96 51
-203 90 -312 113 -39 8 -73 15 -76 15 -2 0 -4 -220 -4 -490 l0 -490 -30 0
c-28 0 -30 3 -30 35 0 99 -71 335 -150 502 -80 168 -245 403 -284 403 -58 0
-267 -107 -364 -187 l-42 -35 42 -50 c209 -244 312 -471 349 -772 20 -169 -1
-397 -53 -556 -117 -360 -405 -680 -735 -818 -190 -80 -345 -108 -547 -99
-378 16 -739 214 -965 529 -203 285 -287 633 -236 983 21 145 58 263 127 404
210 429 611 704 1075 736 86 6 231 -3 328 -21 24 -4 36 0 55 19 66 65 226 198
303 252 47 33 86 62 86 66 1 3 -43 21 -97 41 -239 89 -467 122 -727 106z m265
-98 c120 -13 233 -35 333 -67 94 -29 96 -40 4 -19 -285 66 -585 54 -852 -36
-243 -81 -446 -208 -635 -398 -270 -269 -415 -579 -461 -980 -24 -210 9 -499
80 -707 21 -62 37 -113 35 -113 -7 0 -55 101 -93 197 -80 203 -114 372 -114
573 0 325 97 636 280 893 79 111 248 278 363 360 103 73 271 163 377 203 137
52 390 101 528 103 33 0 103 -4 155 -9z m1254 -1770 c1 -230 -31 -384 -123
-599 -94 -222 -301 -470 -499 -602 -380 -251 -812 -307 -1222 -157 -74 27
-228 100 -175 83 11 -4 65 -22 120 -40 334 -112 727 -76 1061 99 146 76 250
153 379 281 284 280 433 637 436 1045 1 116 3 129 12 95 6 -22 11 -114 11
-205z"/>
<path d="M5910 8079 c-412 -24 -806 -206 -1120 -519 -211 -210 -348 -431 -441
-710 l-38 -115 0 392 c-1 215 -5 394 -9 397 -4 2 -53 -4 -107 -15 -101 -19
-247 -70 -320 -112 l-40 -23 -3 -1087 -2 -1087 52 -30 c95 -54 229 -97 391
-124 l37 -7 1 393 0 393 43 -123 c80 -226 187 -415 312 -550 l59 -64 65 25
c126 47 278 134 324 186 19 20 18 21 -40 83 -127 136 -219 292 -279 476 -20
61 -40 113 -44 115 -3 1 -49 0 -103 -3 l-96 -5 28 -110 c27 -107 86 -261 130
-341 35 -63 -7 -7 -53 71 -46 79 -113 228 -146 326 l-22 66 -54 -5 c-30 -2
-70 -1 -90 2 -33 7 -35 9 -35 46 l0 40 635 0 635 0 7 28 c11 38 7 380 -4 417
l-9 30 -525 0 c-661 1 -619 -1 -619 28 0 109 80 389 154 542 123 252 283 434
525 596 282 190 575 280 905 280 210 0 388 -32 563 -102 129 -51 171 -84 51
-40 -275 102 -594 114 -902 35 -278 -72 -513 -209 -731 -428 -224 -225 -364
-472 -429 -756 -9 -35 -14 -65 -13 -66 1 -1 51 -4 111 -6 l108 -3 34 99 c46
137 84 215 162 331 220 332 585 543 983 571 223 15 506 -55 714 -178 480 -283
726 -849 616 -1414 -34 -179 -96 -325 -205 -489 -57 -85 -222 -263 -294 -317
-31 -23 -33 -28 -30 -72 l3 -47 75 52 c141 98 297 272 390 436 129 224 188
447 191 713 1 114 2 120 11 70 5 -30 7 -131 5 -225 -4 -134 -10 -192 -30 -275
-29 -122 -80 -259 -137 -368 -87 -167 -264 -363 -431 -474 l-78 -53 -1 -157
c0 -104 4 -158 10 -158 18 0 149 75 232 132 175 121 338 284 461 460 206 296
317 653 317 1023 0 662 -334 1244 -906 1581 -214 126 -507 213 -759 226 -38 2
-126 1 -195 -3z m1497 -1641 c-3 -8 -6 -5 -6 6 -1 11 2 17 5 13 3 -3 4 -12 1
-19z"/>
<path d="M5695 4959 c-29 -33 -34 -44 -23 -50 34 -19 183 -40 298 -42 l125 -2
3 48 3 47 -93 0 c-85 1 -219 18 -259 34 -11 5 -28 -6 -54 -35z"/>
<path d="M5545 4814 c-33 -25 -100 -71 -148 -102 l-89 -57 49 -22 c171 -78
403 -132 601 -140 l142 -6 0 147 0 146 -52 0 c-91 0 -229 19 -330 44 -53 13
-100 26 -105 29 -5 3 -35 -15 -68 -39z"/>
<path d="M3817 4423 c-18 -223 -121 -356 -294 -379 -50 -6 -53 -8 -53 -35 l0
-29 599 0 c330 0 602 4 605 8 3 5 3 18 -1 30 -4 16 -16 23 -52 28 -150 21
-236 111 -278 290 l-17 72 -90 6 c-107 8 -274 39 -353 67 -31 10 -57 19 -58
19 -1 0 -5 -35 -8 -77z"/>
<path d="M3722 3243 c-6 -16 -65 -172 -132 -348 -67 -176 -139 -367 -160 -425
-50 -138 -148 -387 -167 -425 -23 -45 -73 -93 -110 -106 -18 -6 -33 -17 -33
-25 0 -12 33 -14 196 -14 181 0 195 1 192 18 -2 12 -16 19 -47 23 -54 7 -91
45 -91 92 1 18 22 95 49 172 l47 140 225 3 224 2 59 -147 c32 -81 61 -163 63
-182 6 -47 -20 -72 -82 -78 -35 -5 -45 -10 -45 -24 0 -18 13 -19 265 -19 258
0 265 1 265 20 0 16 -7 20 -32 21 -18 1 -37 0 -43 -1 -5 -1 -7 1 -3 5 4 4 -9
21 -28 38 -43 37 -79 108 -144 276 -26 69 -92 236 -145 371 -53 135 -120 308
-150 385 -106 278 -94 255 -130 255 -27 0 -35 -5 -43 -27z m67 -561 c50 -134
91 -248 91 -253 0 -10 -363 -13 -372 -3 -6 5 28 105 134 396 23 65 45 115 49
110 3 -4 47 -117 98 -250z"/>
<path d="M7500 3244 c-178 -47 -288 -165 -298 -320 -8 -130 42 -236 152 -318
31 -23 132 -80 224 -126 195 -98 268 -159 291 -243 28 -100 -14 -206 -104
-262 -46 -29 -53 -30 -159 -30 -124 0 -158 12 -228 79 -63 60 -94 119 -127
244 -10 35 -16 42 -37 42 l-24 0 2 -167 3 -166 65 -33 c145 -75 372 -98 515
-54 96 30 122 45 178 99 106 101 142 248 97 393 -36 119 -105 176 -365 303
-82 40 -169 87 -192 104 -83 61 -122 151 -102 238 23 106 116 168 249 166 57
0 87 -6 120 -23 88 -44 125 -94 158 -217 17 -60 22 -68 43 -68 l24 0 3 146 3
147 -68 27 c-134 53 -309 69 -423 39z"/>
<path d="M1670 3221 c0 -14 10 -21 38 -26 49 -9 78 -28 99 -68 16 -29 18 -76
21 -535 3 -569 1 -595 -61 -632 -18 -11 -44 -20 -59 -20 -21 0 -28 -5 -28 -20
0 -19 7 -20 265 -20 258 0 265 1 265 20 0 15 -7 20 -27 20 -39 0 -89 33 -109
71 -13 27 -17 76 -22 286 l-5 253 317 0 316 0 0 -247 c0 -222 -2 -252 -19
-290 -21 -45 -40 -59 -98 -71 -24 -5 -39 -14 -41 -25 -3 -16 18 -17 272 -17
229 0 276 2 276 14 0 15 -21 26 -52 26 -32 0 -75 37 -92 80 -14 35 -16 104
-16 551 0 553 0 554 55 597 15 12 42 24 61 28 24 4 34 12 34 25 0 18 -12 19
-270 19 -258 0 -270 -1 -270 -19 0 -13 9 -21 33 -25 50 -9 97 -43 113 -81 11
-26 14 -86 14 -259 l0 -224 -72 -4 c-40 -2 -181 -3 -313 -3 l-240 0 1 230 c0
202 3 234 19 265 23 44 40 57 93 71 30 8 42 17 42 30 0 17 -10 18 -115 18 -72
0 -113 -3 -110 -9 4 -6 -10 -10 -32 -9 -38 1 -38 1 -8 9 30 8 30 8 -7 9 -21 0
-38 -3 -38 -9 0 -5 -10 -10 -22 -9 -22 0 -22 1 -3 9 13 6 -20 9 -92 9 -104 1
-113 0 -113 -18z"/>
<path d="M4500 3220 c0 -12 7 -20 18 -20 9 0 35 -9 58 -19 78 -36 77 -24 78
-605 1 -546 0 -560 -48 -605 -13 -13 -42 -25 -65 -28 -31 -4 -41 -10 -41 -24
0 -18 13 -19 271 -19 243 0 271 2 265 16 -3 9 -6 18 -6 20 0 2 -15 4 -34 4
-38 0 -79 33 -98 77 -7 17 -13 117 -16 261 l-4 232 56 0 c106 0 102 4 286
-320 64 -113 129 -224 144 -247 l29 -43 173 0 c150 0 174 2 174 15 0 16 -5 19
-53 29 -54 12 -137 112 -231 281 -130 234 -162 281 -196 295 -31 13 -40 30
-16 30 32 0 156 73 196 116 66 72 85 123 85 229 0 80 -3 97 -30 148 -42 84
-126 144 -245 174 -72 19 -436 31 -426 14 4 -6 2 -11 -3 -11 -6 0 -11 5 -11
10 0 6 -58 10 -155 10 -148 0 -155 -1 -155 -20z m640 -67 c57 -25 107 -75 134
-133 16 -35 20 -66 21 -140 0 -112 -24 -180 -83 -231 -55 -49 -96 -61 -219
-67 l-113 -5 0 291 c0 266 1 292 18 302 28 18 190 6 242 -17z"/>
<path d="M5750 3221 c0 -14 10 -21 35 -25 47 -9 92 -50 105 -94 6 -22 10 -187
10 -407 1 -272 4 -391 15 -449 43 -240 223 -378 495 -379 247 0 415 122 460
334 7 33 13 203 16 439 2 212 7 404 10 428 7 58 52 109 110 123 33 8 44 16 44
30 0 18 -11 19 -210 19 -199 0 -210 -1 -210 -19 0 -14 10 -21 38 -26 56 -10
90 -35 113 -82 20 -42 21 -59 21 -441 -1 -332 -3 -407 -17 -457 -30 -114 -81
-176 -180 -221 -83 -38 -195 -39 -276 -2 -98 45 -163 131 -188 246 -14 68 -15
812 -1 863 12 44 43 73 95 89 53 17 55 18 48 35 -4 13 -46 15 -269 15 -252 0
-264 -1 -264 -19z"/>
<path d="M8240 3220 c0 -12 7 -20 18 -20 41 -1 99 -38 118 -76 18 -37 19 -66
19 -559 0 -482 -1 -522 -18 -553 -21 -39 -71 -72 -109 -72 -21 0 -28 -5 -28
-20 0 -20 7 -20 271 -20 250 0 270 1 267 17 -2 10 -16 20 -35 24 -48 10 -83
36 -101 77 -15 33 -17 92 -17 547 0 483 1 513 19 553 20 45 47 64 104 77 23 5
32 12 30 23 -3 15 -21 17 -122 20 -96 2 -117 0 -108 -10 8 -10 3 -13 -24 -12
-19 1 -38 5 -42 9 -4 5 -2 6 3 3 6 -3 19 -2 30 3 13 5 -11 8 -64 8 -71 1 -82
-1 -72 -13 10 -12 8 -13 -8 -9 -12 3 -18 9 -15 14 3 5 -22 9 -55 9 -54 0 -61
-2 -61 -20z"/>
<path d="M2967 1334 c-4 -38 -7 -147 -7 -241 l0 -173 30 0 30 0 0 74 0 74 108
4 c124 4 173 22 209 77 51 76 20 185 -62 226 -32 15 -67 20 -171 23 l-131 4
-6 -68z m268 2 c90 -38 83 -178 -12 -206 -21 -6 -74 -10 -118 -8 l-80 3 -1
105 c0 58 1 108 3 113 7 13 172 8 208 -7z"/>
<path d="M3620 1161 l0 -241 165 0 c158 0 165 1 165 20 0 19 -7 20 -135 20
l-135 0 -2 218 -3 217 -27 3 -28 3 0 -240z"/>
<path d="M4237 1171 c-59 -126 -110 -237 -113 -245 -5 -13 1 -16 26 -16 29 0
33 5 61 65 l29 65 138 0 137 -1 27 -59 c24 -54 30 -60 57 -60 17 0 31 2 31 5
0 3 -20 45 -43 93 -24 48 -74 153 -112 235 -67 144 -68 147 -100 147 -32 0
-32 0 -138 -229z m197 36 l55 -117 -110 0 c-61 0 -109 4 -109 9 0 12 102 232
106 229 1 -2 27 -56 58 -121z"/>
<path d="M4867 1393 c-4 -3 -7 -111 -7 -240 l0 -233 30 0 30 0 0 188 0 187 26
-33 c65 -82 279 -338 288 -344 6 -4 19 -8 29 -8 16 0 17 18 17 246 l0 245 -27
-3 -28 -3 -5 -184 -5 -184 -105 129 c-58 70 -127 154 -153 186 -43 53 -72 69
-90 51z"/>
<path d="M5590 1161 l0 -239 26 -5 c14 -2 27 0 30 7 2 6 3 89 1 184 -2 94 0
172 4 172 4 0 73 -81 155 -180 128 -157 151 -180 176 -180 l28 0 -2 238 -3
237 -27 3 -28 3 0 -185 c0 -106 -4 -186 -9 -186 -5 0 -11 4 -13 9 -1 5 -68 88
-148 185 -109 132 -151 176 -167 176 l-23 0 0 -239z"/>
<path d="M6310 1160 l0 -240 180 0 c173 0 180 1 180 20 0 19 -7 20 -150 20
l-150 0 0 90 0 90 130 0 c72 0 130 4 130 9 0 38 -10 41 -136 41 l-124 0 0 80
0 80 140 0 140 0 0 25 0 25 -170 0 -170 0 0 -240z"/>
<path d="M6938 1378 c-1 -13 -2 -121 -2 -240 l-1 -218 28 0 27 0 0 75 0 75 88
0 87 0 50 -74 c47 -70 72 -89 103 -78 8 2 -8 33 -44 84 -30 44 -54 81 -52 83
2 1 18 10 36 19 67 34 92 152 45 215 -49 64 -99 80 -260 81 -100 0 -103 -1
-105 -22z m280 -48 c59 -38 65 -129 11 -174 -36 -31 -72 -38 -163 -34 l-69 3
1 110 c1 61 2 112 2 114 1 11 198 -7 218 -19z"/>
<path d="M7653 1381 c-58 -27 -85 -73 -80 -131 4 -31 12 -51 30 -66 25 -21 46
-29 179 -68 70 -20 88 -37 88 -80 0 -51 -29 -70 -113 -74 -62 -3 -79 0 -122
22 -47 24 -51 25 -63 8 -11 -15 -9 -20 14 -38 37 -30 90 -44 166 -44 124 0
205 73 179 160 -17 58 -60 82 -210 120 -49 13 -91 49 -91 79 0 11 11 32 23 47
20 23 34 28 86 32 43 3 75 -1 107 -13 50 -19 51 -19 56 10 8 48 -168 74 -249
36z"/>
</g>
</svg>
