<svg xmlns="http://www.w3.org/2000/svg" 
 viewBox="0 0 815.000000 790.000000"
 preserveAspectRatio="xMidYMid meet">
<g transform="translate(0.000000,790.000000) scale(0.100000,-0.100000)"
fill="#4A0E2E" stroke="none">
<path d="M2340 6350 c0 -24 5 -31 28 -35 133 -26 191 -57 239 -129 60 -88 90
-233 99 -487 6 -150 9 -169 23 -163 75 33 279 80 390 90 l71 7 0 51 c0 83 20
266 37 341 21 92 44 144 84 190 40 45 139 95 189 95 49 0 64 12 56 44 l-6 26
-605 0 -605 0 0 -30z"/>
<path d="M4696 6364 c-13 -34 -6 -42 47 -49 73 -9 169 -58 211 -107 62 -72 92
-201 103 -435 l6 -139 86 -12 c47 -7 153 -32 236 -56 82 -25 150 -44 151 -43
0 1 6 99 12 217 16 301 47 417 129 490 46 40 134 80 178 80 41 0 55 11 55 41
l0 29 -526 0 c-417 0 -524 -3 -518 -12 6 -10 4 -10 -7 0 -8 7 -41 12 -85 12
-56 0 -73 -3 -78 -16z m131 0 c-3 -3 -12 -4 -19 -1 -8 3 -5 6 6 6 11 1 17 -2
13 -5z"/>
<path d="M3039 5535 c-462 -72 -881 -334 -1171 -731 -233 -318 -361 -784 -328
-1188 36 -450 219 -848 534 -1161 390 -387 941 -566 1475 -480 606 98 1122
522 1356 1115 43 108 89 285 100 378 6 57 9 62 31 62 l24 0 0 -799 c0 -664 -3
-813 -15 -884 -37 -212 -106 -295 -273 -327 -59 -12 -62 -14 -62 -41 l0 -29
595 0 595 0 0 29 c0 26 -4 29 -42 35 -167 26 -250 111 -294 301 -18 76 -19
162 -22 1540 l-3 1460 -47 28 c-95 56 -297 126 -402 139 l-25 3 -3 -488 -2
-488 -28 3 c-23 3 -27 8 -30 38 -16 194 -132 501 -268 705 -87 132 -142 195
-167 195 -61 -1 -272 -111 -375 -198 l-33 -28 61 -69 c281 -318 393 -746 309
-1184 -70 -363 -359 -741 -694 -905 -565 -279 -1230 -108 -1592 408 -102 144
-170 300 -215 488 -30 125 -32 409 -5 538 100 471 406 845 823 1004 145 55
267 77 429 79 78 1 177 -4 223 -12 l82 -13 79 75 c88 84 203 178 280 227 28
18 51 36 51 40 0 4 -15 12 -32 17 -18 6 -69 24 -113 40 -185 67 -341 93 -560
92 -88 -1 -199 -7 -246 -14z m526 -105 c102 -18 250 -58 242 -67 -2 -2 -41 4
-85 12 -344 65 -694 21 -999 -125 -320 -155 -596 -427 -743 -735 -68 -141
-101 -241 -135 -408 -56 -279 -38 -594 50 -861 14 -43 24 -81 21 -83 -8 -8
-96 215 -126 322 -46 165 -60 264 -61 422 0 151 15 265 56 418 144 547 636
991 1219 1100 204 38 358 39 561 5z m1118 -1750 c1 -133 -3 -187 -21 -275 -35
-180 -99 -346 -183 -481 -192 -307 -449 -512 -775 -618 -295 -96 -589 -89
-882 21 -83 31 -162 69 -162 78 0 1 30 -9 68 -22 173 -64 337 -89 537 -80 308
14 582 122 846 335 351 283 546 690 550 1147 1 103 3 123 11 95 5 -19 10 -109
11 -200z"/>
<path d="M4705 5543 c-133 -12 -352 -75 -509 -146 -321 -144 -618 -410 -803
-719 -76 -127 -104 -188 -159 -348 l-43 -125 0 393 -1 392 -43 0 c-90 0 -273
-60 -395 -129 l-42 -25 2 -1084 3 -1085 60 -33 c77 -43 217 -90 325 -109 47
-8 86 -15 88 -15 1 0 2 177 3 393 l0 392 43 -123 c54 -152 110 -270 179 -376
57 -87 170 -224 193 -233 34 -13 340 149 383 203 l21 26 -55 59 c-30 33 -69
81 -87 107 -18 26 -39 55 -48 64 -41 44 -137 267 -176 406 -2 8 -32 12 -104
12 -95 0 -100 -1 -100 -21 0 -62 91 -332 141 -417 27 -46 24 -54 -4 -12 -68
102 -139 251 -182 384 l-23 69 -71 -2 c-100 -3 -111 2 -111 50 l0 39 635 0
635 0 7 28 c11 39 9 393 -3 420 l-10 23 -569 2 -570 2 3 60 c3 84 18 151 64
295 47 144 88 237 148 335 243 398 691 686 1155 745 106 13 331 14 425 0 111
-15 258 -55 373 -101 156 -62 150 -64 -34 -10 -182 53 -259 65 -434 64 -171
-1 -243 -10 -398 -48 -268 -68 -489 -192 -715 -401 -141 -131 -245 -273 -337
-459 -70 -141 -90 -199 -120 -337 l-13 -58 37 0 c20 -1 69 -2 110 -3 l73 -2
37 105 c121 341 329 590 623 744 203 107 369 149 588 148 483 0 927 -276 1144
-710 167 -332 188 -756 55 -1102 -33 -88 -117 -236 -179 -319 -55 -71 -201
-221 -263 -268 -25 -19 -28 -27 -25 -69 l3 -46 80 57 c294 209 503 553 559
921 9 56 16 155 17 220 1 102 3 113 11 74 15 -74 2 -371 -22 -483 -75 -354
-283 -666 -571 -859 l-78 -53 -1 -157 c0 -107 3 -158 11 -158 6 0 41 17 77 37
434 240 759 656 877 1121 40 158 55 284 55 458 1 437 -136 824 -410 1159 -278
340 -677 569 -1101 630 -97 14 -325 18 -434 8z m1582 -1635 c-3 -8 -6 -5 -6 6
-1 11 2 17 5 13 3 -3 4 -12 1 -19z"/>
<path d="M4576 2429 c-21 -22 -34 -45 -29 -49 17 -17 172 -41 300 -47 l133 -6
0 51 0 52 -92 0 c-83 0 -215 18 -259 35 -11 4 -28 -8 -53 -36z"/>
<path d="M4447 2298 c-163 -112 -198 -135 -228 -151 -40 -22 -41 -20 86 -72
166 -67 382 -111 578 -118 l97 -3 0 147 0 146 -117 7 c-126 7 -226 25 -317 55
l-56 18 -43 -29z"/>
<path d="M2706 1958 c-3 -7 -7 -43 -10 -79 -12 -125 -64 -240 -136 -298 -47
-38 -91 -55 -162 -66 -45 -7 -48 -9 -48 -36 l0 -29 600 0 600 0 0 29 c0 26 -4
29 -46 35 -64 8 -124 37 -174 82 -57 51 -85 115 -114 255 -5 25 -9 26 -97 33
-130 10 -359 56 -399 81 -6 3 -12 0 -14 -7z"/>
</g>
</svg>